<?xml version="1.0" encoding="utf-8"?>
<!-- Generator: Adobe Illustrator 19.1.0, SVG Export Plug-In . SVG Version: 6.00 Build 0)  -->
<svg version="1.1" xmlns="http://www.w3.org/2000/svg" xmlns:xlink="http://www.w3.org/1999/xlink" x="0px" y="0px"
	 viewBox="0 0 786 722" style="enable-background:new 0 0 786 722;" xml:space="preserve">
<style type="text/css">
	.st0{display:none;}
	.st1{display:none;opacity:0.5;}
	.st2{fill:#B72025;stroke:#000000;stroke-width:4;stroke-miterlimit:10;}
	.st3{fill:#FFD66A;stroke:#000000;stroke-width:4;stroke-miterlimit:10;}
	.st4{fill:#24AA56;stroke:#000000;stroke-width:4;stroke-miterlimit:10;}
	.st5{fill:#EDE7DC;stroke:#000000;stroke-width:4;stroke-miterlimit:10;}
	.st6{stroke:#000000;stroke-width:4;stroke-miterlimit:10;}
	.st7{fill:#B72126;stroke:#000000;stroke-width:4;stroke-miterlimit:10;}
	.st8{fill:#FFD66A;stroke:#FFD66A;stroke-width:2;stroke-miterlimit:10;}
	.st9{fill:#FFFFFF;stroke:#FFFFFF;stroke-miterlimit:10;}
	.st10{stroke:#000000;stroke-miterlimit:10;}
</style>
<g id="Layer_1" class="st0">
</g>
<g id="Layer_2" class="st1">
</g>
<g id="Layer_3">
	<path class="st2" d="M355.5,104c-6.1,3-15.7,6.8-28.1,8.2c-10.8,1.2-19.8,0.1-26.1-1.2c-0.9-1.4-2-3.5-1.3-5.3
		c0.8-2.5,3.8-2.3,5.8-4.7c2.5-2.9,1-6.5,1-12c0.1-7.1,2.7-8.6,4.8-17c1.1-4.4,2.2-11,1.3-19.7c-4.1-0.3-17-1.4-19-7.6
		c-2.4-7.5,13-17.8,22.3-22.2c10.6-5,25.1-7.7,28.9-2.4c1.1,1.5,1.8,4.2,2.3,6.3c1.1,4.1,1.1,7.3,1.2,8
		C349,39.8,351.6,66.1,355.5,104z"/>
	<path class="st3" d="M306.9,88.9c-0.5-1.6-2-4.8-10.5-10.3c-5.4-3.5-10.7-7-18.9-9.1c-3.7-0.9-11.7-2.9-21.3-0.9
		c0,0-8.5,1.8-14.1,6.3c-4.2,3.3-3.3,4.5-9.5,10.4c-4.4,4.1-6.7,5.2-8,8.8c-0.3,0.7-2,5.5,0.3,8.2c2.5,2.8,8.1,1.4,11.8,0.4
		c3.9-1,10.2-2.7,13.1-8c2.6-4.7,1-9.7,3.1-10.3c1.2-0.3,1.6,1.3,4,2.3c3.6,1.4,7.8-0.2,13.3-2.4c3-1.2,4.7-2.1,5.4-1.4
		c0.9,0.8-0.9,2.6-0.6,5.6c0.4,4,4.6,6.5,5.6,7c4,2.2,6.2,0.6,10.4,1.9c2.5,0.8,5.9,2.8,9.1,8.3c1.3-0.7,4.7-2.5,6.5-6.3
		C308.8,94.6,307.3,90.1,306.9,88.9z"/>
	<path class="st4" d="M270.2,123.7c0.3,0.4,0.5,0.7,0.7,1.1c0.7,1.1,2.6,4,4.2,7.6c1.7,3.7,2.8,7.2,3.6,10.1
		c9.9-1.1,18-1.2,23.6-1.1c4,0.1,12.1,0.4,41.6,4.9c7.6,1.2,13.9,2.2,18.3,2.9c5.9-9.4,11.1-16.4,14.9-21.1c3.6-4.5,8-9.6,10.1-17.9
		c1-3.7,1.7-6.7,0.4-8.9c-3.6-5.7-20.7-0.5-32.9,3.1c-3.7,1.1-6.3,2-11.1,3c-2.3,0.5-8.5,1.6-16.6,1.8c-7.8,0.1-13.6-0.7-15.5-1
		c-6.3-1-6-1.6-11.5-2.5c-6.4-1-11.6-0.4-22.3,0c-8.7,0.3-12.6,0.7-13.9,3.2c-1.1,2.2,0.3,5.3,1.4,7.8
		C266.6,119.4,267.6,119.8,270.2,123.7z"/>
	<path class="st5" d="M278.8,142.5c-9.6,1.3-24,4.2-39.9,11.8c-5.5,2.6-36,17.1-33.8,27.5c2.2,10.2,34.5,11.1,37.9,11.1
		c0,4.2,0,7.6-0.1,9.9c-0.2,6.5-0.7,9.7,1.1,13.6c0.9,1.9,1.5,3.1,2.8,3.6c3.3,1.2,6.4-3.8,12.8-6.8c5.3-2.5,11-2.7,14.6-2
		c9.5,1.7,14.8,10.9,18.4,17c1.5,2.6,13.5,23.9,4.6,41.3c-1.1,2.2-3.3,6.2-7.8,8.8c-5.6,3.2-13.1,3-18.8,0.4
		c-7.1-3.3-9.2-9.3-17.9-12.4c-1.4-0.5-3.3-1.1-4.8-0.1c-1.5,1-1.6,3.2-1.5,7.8c0.1,5.8,0.2,8.7,0.6,13.1c0.4,3.3,0.7,6.2,1.5,11.8
		c0.5,3.3,0.9,6.1,1.1,8c4.5,1.5,11.6,3.7,20.5,5.8c18,4.1,34.7,7.7,52.4,1.9c5.8-1.9,13.7-4.7,17.4-12.1c0.4-0.8,3.8-7.8,1.1-15.3
		c-2.9-8.3-12.5-11-11.4-15.4c0.3-1.3,1.4-2.1,2.3-2.8c2.7-2.1,5.8-1.6,8.8-1.6c6.4-0.1,6.4-2.4,15.6-4c2.4-0.4,6.1-0.9,10.8-0.9
		c1.5-6-0.1-9.5-0.9-10.8c-0.4-0.7-1.6-2.5-7.9-6.5c-7.6-4.8-8.6-3.9-9.6-5.6c-3-5.1,6.4-11.6,9.4-26.3c0.7-3.6,3-15-2.6-19
		c-3.1-2.2-8.9-2.2-12.3,0.4c-2.5,1.9-3.5,5.1-4.8,4.8c-1.1-0.2-1.3-2.5-1.4-2.9c-0.5-4.2,2.3-7.7,4.8-11
		c2.9-3.9,7.6-10.2,10.9-17.5c2.1-4.6,2.1-6.2,4.8-11c1.7-3,4.7-7.8,4.8-7.9l0,0c-12.4-2.1-22.9-3.7-30.9-4.9
		c-17.4-2.5-22.8-3-28.3-3.1C292.9,140.9,284.5,141.7,278.8,142.5z"/>
	<path class="st6" d="M308.5,169.4c-1.6-4.5-1.3-6.2-3.3-8.1c-2.5-2.6-6.9-3.8-8.5-2.3c-1.5,1.5,0.1,5.2,0.4,6
		c1.2,3,3.2,4.4,6.8,7.4c7.1,5.9,9,8.1,9.5,7.6C314,179.5,310.9,176.3,308.5,169.4z"/>
	<path class="st6" d="M362.3,149.1c7.7,1.9,12.4,5.6,14.7,7.7c5.6,5.1,8,10.8,10.1,15.9c2.3,5.6,3.3,10.5,3.9,13.9
		c-0.6,10.3-1,18.1-1.5,26.1c-0.7,11.7-0.8,13.7-1.6,17.3c-1,4.3-2.2,7-2.4,12.1c-0.1,3.8,0.4,5.5,0.9,10.1
		c0.4,3.6,0.7,8.8,0.4,15.4c-6.5-1.7-13-3.4-19.5-5.2c0.4-1.1,0.8-2.7,0.8-4.7c0-0.4-0.2-6.3-4.6-10.3c-3.4-3.1-6-2.2-10.8-6.5
		c-1.3-1.1-1.9-1.7-2.2-2.5c-1.6-3.6,2.5-7.1,5.6-13.3c3.9-7.7,3.9-14.7,3.9-21.3c0-8.3-1.9-10.2-2.6-10.8
		c-3.7-3.2-9.8-1.5-10.3-1.4c-4.8,1.4-7.1,5-7.8,4.5c-0.9-0.6,2.4-6.5,4.4-9.8c7.8-13.6,11-17.9,14.4-25.2
		C358.9,158.6,360.6,154.5,362.3,149.1z"/>
	<path class="st3" d="M390.9,186.6c0.4-4.7,1-11.8,2.1-20.3c1.6-12.2,3.2-23.2,7.5-36.4c4.4-13.7,7.3-22.1,15.7-28.1
		c2.7-1.9,8-5.8,14.9-5.6c7.5,0.2,9.2,4.8,19.3,6.6c4.5,0.8,11.6,2.1,16.3-2.1c3.5-3.1,4-7.8,4.2-9.7c0.2-1.5,0.4-5.4-2.4-11.9
		c-1.6-3.8-5.2-12.2-14.3-18.5c-3.8-2.7-16-11.6-24.9-6.8c-4.1,2.2-8.1,7.6-6.6,12.1c0.9,2.7,3.7,5,6.8,5.1c4.6,0.2,7.8-4.4,7.5-4.8
		c-0.3-0.4-4.1,3.1-7.6,1.7c-2.4-0.9-3.2-3.7-3.2-3.9c-0.9-3.4,1.9-6.1,2.4-6.6c2.4-2.3,5.5-2.5,7.2-2.6c8.6-0.4,14.7,6.6,16.3,8.5
		c2.1,2.6,3.8,4.6,3.9,7.6c0.1,6-6.6,10.3-10.6,12.8c-2.1,1.3-6.8,4.3-13.7,5c-6.6,0.7-11.9-1.1-17.9-3.6
		c-12.7-5.4-26.7-11.3-38.3-25.9c-10.3-13-9.2-20.7-8.6-22.1c1.3-3.1,3.6-5.4,3.6-5.4c0.1-0.1,0.2-0.2,0.3-0.3
		c5.1-5,12.1-5.5,18.8-5.7c15.6-0.6,23.4-0.9,30.2-0.1c12.7,1.4,24.5,2.9,37.9,9.4c9.5,4.6,15.8,10.4,28.5,22
		c25.4,23.2,28,34.5,28.7,37.9c0.8,4.1,2.2,11.5-1.6,18.8c-4.9,9.3-15.6,12.3-21.1,13.9c-2.5,0.7-4.5,1.1-6.1,1.2
		c-3.7,0.3-6.5,0.2-8.3,0.1c-2.9-0.1-6.6,0.1-14,0.6c-9,0.6-13.5,1-16.4,2.6c-3.9,2.2-6.1,5.5-7.5,7.8c-1.2,4.6-2.6,11.6-2.4,20
		c0.3,11,2.9,15.9,4.6,24.4c0.9,4.7,5,25.7-5.7,44.2c-2.8,4.9-11.7,18.2-28.6,22.9c-9.1,2.5-16.9,1.6-21.4,0.7
		C387.8,230.3,389.4,208.5,390.9,186.6z"/>
	<path class="st5" d="M439.7,139.9c15.5-2,28.7-1.9,38.9-1.3c4.1,0.2,20.2,1.3,40.4,6.8c0,0,18.5,5,33.4,17.9
		c1.6,1.4,4.2,3.9,3.7,6.3c-0.5,2.6-4.2,3.9-7.3,4.9c-8.5,2.9-10.9,0.3-17.2,2.8c-6,2.4-9.3,7-10.1,8.1c-3.5,5-1.9,7.3-4.6,10.2
		c-4.6,4.9-11.6,0.3-20.2,3.1c-6.4,2.1-10.3,8.5-18.2,21.1c-3.9,6.2-7.1,12.7-8.9,20.6c-1.2,5.5-1.1,9.2,0.2,12.7
		c0.6,1.6,1.9,4.9,5,7.1c5.9,4.1,15.9,2.3,22-2.3c3.5-2.7,5-5.7,8.4-5.7c2.2,0,4.6,1.2,5.9,3.1c3,4.3,0.1,11.3-3.9,20.5
		c-0.8,1.9-1.8,3.8-2.7,5.7c-1.5,3-2.1,3.9-2.7,5.9c-0.3,0.8-0.7,2.7-0.9,5c-0.1,2.8,0.3,4.9,0.7,6.6c0.4,1.9,1.2,4.7,2.8,7.7
		c-2.5,2.5-6.6,5.8-12.2,7.7c-7.3,2.5-11,0.6-24.3,1.1c-8.9,0.3-9.1,1.3-19.5,2c-9.6,0.6-17.3,0.4-22.2,0.1c0.1-1.8,0.3-4.4,1.3-7.3
		c1.9-5.7,4.7-6.8,5.5-10.4c1.2-5.6-3.7-11.1-6.3-14c-2-2.2-5.7-5.7-18.2-10.9c-5.2-2.2-12.6-4.9-21.8-7.3
		c-0.1-5.1-0.2-10.3-0.4-15.4c4.6,0.8,18.9,2.5,32.9-5.8c16.8-9.9,21.4-27.1,22.6-31.7c3.4-12.6,1.4-24.2,0.7-28.4
		c-1.4-7.6-3.1-10.1-5.2-22.5c-0.9-5.4-1.9-12.7,1.1-20.7C438.9,141.7,439.4,140.6,439.7,139.9z"/>
	<path class="st6" d="M464.2,171.4c1-1.7,1.9-2.4,3-3.6c2.4-2.6,1.7-3.4,3.9-6.1c0.4-0.5,4.2-5.1,6-4.3c1.2,0.5,1.1,3.2,1.1,5.1
		c-0.1,2.2-0.1,3.8-1.2,4.8c-1.4,1.3-2.7-0.1-5.9,0.8c-3.8,1-6.3,4.1-6.6,4.5c-0.9,1.1-1.4,2.2-1.5,2.1
		C462.8,174.5,463.3,172.9,464.2,171.4z"/>
	<path class="st7" d="M249.8,306.8L213,301c-0.6,2.5-1.4,6.3-2.6,10.8c-3.9,15.2-7.5,25.9-10,33.5c-4.4,13.3-4.2,14-11.2,37.5
		c-14.8,49.3-17.7,52.8-30.8,96.9c-4.9,16.6-13.7,46.9-19.8,65c-2.2,6.6-3.9,13.3-6.6,19.7c-0.9,2-2.5,7.1-5.6,17.2
		c-0.2,0.8-0.8,2.6-0.7,5.1c0.1,2,0.6,3.6,1,4.6c24.7,3.5,45.2,5.1,59.7,5.9c36.6,2,65.3,0.8,97.6-0.7c23-1.1,42-2.5,55.1-3.6
		c10.8-76,21.6-152.1,32.4-228.1l8.9-98.7c-5.2-2.3-9.8-2.9-12.7-3.1c-5.5-0.3-9.9,0.7-12.1,1.1c-2.6,0.6-5.8,1.5-5.9,1.5
		c-3.7,1.1-3.5,1.3-5.2,1.7c-4.6,1-5.6-0.4-9.4,0.7c-1,0.3-4.8,1.4-5.2,3.8c-0.2,1.2,0.6,2.2,1,2.8c3.9,5.3,8,7,10.3,10.3
		c3.7,5.3,1.2,12.8,0.7,14.3c-2.2,6.6-7.2,9.9-9.7,11.5c-3.7,2.4-7,3.3-12.1,4.5c-3.7,0.9-9.6,2.3-18,2.4c-3.8,0-10.1-0.2-31.1-5.2
		C265.6,311,258.3,309.2,249.8,306.8z"/>
	<path class="st8" d="M332.5,402c-2.1-16.8-3.2-25.3-9.8-33.5c-1.9-2.4-8.2-10.2-19-12.6c-18.7-4.1-33.7,12.1-34.5,13.1
		c-0.1-0.8-0.2-2-0.3-3.5c0-2.3,2.4-13.3,3-15.8c-10.3-2.3-20.5-4.7-30.8-7c-0.4,2-30.6,125.4-37.8,152c-3,11.2-13.6,41.3-15.8,51.8
		c-1.5,7.1-2,13-2.3,16.8h33.8c5.9-23.6,11.8-47.2,17.8-70.8c1.5,4.3,10,28.1,30.8,34.4c2.5,0.8,7.2,2.1,13.2,1.3
		c13.3-1.9,21.3-13.2,29-24.5c12.9-18.8,17.2-37,19.8-48.3c2.8-12.2,3.5-21.9,3.8-27C333.9,420.8,333.7,411.9,332.5,402z M282,377.3
		c16.9,2.5,31.1,43.9,21,77.8c-7.3,24.5-29.1,50.5-43.5,46.8c-18.9-4.9-28.8-62-6.5-99.8C255.7,397.4,268.7,375.3,282,377.3z"/>
	<path class="st6" d="M284,596.3c-0.3,2.8-0.8,5-1.1,6.5c-1.5,7.4-2.3,11.1-5,13.9c-1.5,1.6-2.6,1.9-3.2,3.7c-0.9,2.5,0,5.8,1.8,6.6
		c1.5,0.6,2.3-1,5.7-1.9c0.5-0.1,4.4-1,8.5,0.6c1.5,0.6,3.3,1.3,4.3,3.1c0.9,1.7,0.1,2.6,0.3,5.3c0.4,4.6,3.3,5.6,2.8,8.4
		c-0.5,2.4-3,2.2-4.8,5c-3.3,4.9-1,13.7,2.2,14.5c1.4,0.4,3-0.7,6-2.8c2.4-1.7,2.9-2.6,4.7-3.1c2.4-0.7,4.7,0.1,5.3,0.3
		c2.4,0.9,4.4,2.8,7.8,9.2c4,7.8,2.9,8.8,5.1,11.6c4.3,5.4,13.6,8.4,17.6,5.3c4.4-3.4,2.5-14.1-1.5-21.3c-6.2-11-18.2-14.5-17-18.9
		c0.6-2.3,4-1.6,5.6-5c1.9-4-1.6-7.8,0.7-11c1-1.3,2.4-1.8,3.7-2.2c5.2-1.7,8.3,2,10.7,0.3c2.1-1.5,1.9-6.2,0.4-9.2
		c-1-2.1-1.9-1.8-3.1-4c-1.5-2.7-1.1-4.8-1.3-10.8c-0.1-1.8-0.2-4.4-0.6-7.5C321,594,302.5,595.1,284,596.3z"/>
	<path class="st6" d="M126.6,591.1l59.7,5.9c2.1,3.2,5,7.5,8.4,12.8c3.1,4.8,4.8,7.6,5.4,11.7c0.4,2.6,0.9,6-1,8.1
		c-1.8,1.9-4.4,1.1-12.5,1c-7.8-0.1-13.1-0.1-14.1,2.2c-0.6,1.3,0.8,2.2,2.2,7.6c0.8,3.2,1.2,4.7,0.6,5.7c-1.4,2.2-5,0.5-9.1,3.4
		c-1,0.7-2.4,1.7-2.6,3.4c-0.3,2,1.6,2.8,2.5,5.4c0.8,2.4,0.3,4.4-0.6,7.8c-0.7,2.8-1.4,5.4-3.7,7.9c-1,1.1-3.7,4.1-7.3,4.1
		c-2.7,0-3.8-1.8-5.6-1.2c-2.1,0.7-2.7,3.8-3.2,5.7c0,0-1.5,5.7-7.9,14.5c-4.8,6.5-14,12.7-19.1,10.1c-4.1-2.1-4.2-9.2-4.3-9.8
		c-0.2-13.8,16.3-28.8,21.7-33.7c1.5-1.3,4.9-4.4,4.8-8.4c0-2.5-1.5-5.7-4-6.7c-1.9-0.8-2.9,0.3-4.7-0.6c-2.8-1.5-3.3-5.7-3.4-6.4
		c-0.4-3.3,1-4,0.3-5.7c-1.2-2.8-6.3-3.1-10.1-3.4c-2.4-0.2-5.8-0.1-9.8,0.7C115.2,619.2,120.9,605.1,126.6,591.1z"/>
	<path class="st4" d="M205,297.7L105.2,619c-9.7-1.3-17.7-2-23.3-2.4c-9-0.6-13-0.6-20-1.6c-8.3-1.1-14.9-2.8-19.3-4.1
		c0.6-5,1.6-12.3,3.3-21.2c5.3-27.9,11.8-42.4,32.9-98.1c20.8-55,12.5-35.8,20.8-56.8c5.4-13.7,8.3-20.3,10.7-31.7
		c3.4-16.2,2.9-28.7,2.3-44.8c-0.8-20.9-1.2-31.4-6.4-44.2c-4.9-11.9-11.6-20.4-16.6-25.7c1-4.2,2.2-7.5,3.2-9.9
		c2.2-5.3,3.5-6.5,4.5-7.2c2.4-1.7,5.2-1.7,6.7-1.6c13.5,0.4,24.3,2.1,31.8,3.6c13.9,2.8,24.3,6.6,40.9,12.8
		C188.6,290.6,198.3,294.7,205,297.7z"/>
	<g>
		<path class="st9" d="M158.9,331.8c-0.8,0.4-2.3-3.7-6.8-6c-3.4-1.7-5.2-0.7-6.4-2.3c-1.9-2.5-0.3-9.1,4.3-11.1
			c4.1-1.8,9.5,0.5,10.4,3.4c0.5,1.9-1.3,2.7-2.1,6.3C157.2,327.3,159.7,331.3,158.9,331.8z"/>
		<path class="st9" d="M163.6,333c-0.4-0.9,3.8-2.2,6.2-6.6c1.9-3.3,0.9-5.2,2.5-6.3c2.6-1.8,9.1,0,10.9,4.7
			c1.7,4.2-0.9,9.5-3.7,10.2c-1.9,0.5-2.6-1.4-6.2-2.3C168.2,331.5,164,333.9,163.6,333z"/>
		<path class="st9" d="M159.7,344.6c0.3-0.9,4.3,0.8,9-1c3.6-1.4,4-3.4,6-3.2c3.1,0.3,6.9,5.9,5.3,10.7c-1.4,4.3-6.8,6.7-9.5,5.4
			c-1.8-0.9-1.1-2.8-3.3-5.8C164.2,346.3,159.4,345.5,159.7,344.6z"/>
		<path class="st9" d="M154.5,342.9c-0.3,0.9-4.3-0.8-9,0.9c-3.6,1.3-4.1,3.3-6,3.1c-3.1-0.3-6.8-6-5.2-10.7
			c1.5-4.3,6.9-6.6,9.5-5.3c1.8,0.9,1.1,2.8,3.2,5.8C150,341.1,154.8,342,154.5,342.9z"/>
		<path class="st9" d="M158.2,353.4c0.9-0.3,2,3.9,6.2,6.6c3.2,2,5.1,1.2,6.2,2.9c1.6,2.7-0.5,9.1-5.3,10.6c-4.3,1.4-9.5-1.4-10-4.3
			c-0.4-1.9,1.6-2.5,2.7-6.1C159.4,358.1,157.2,353.8,158.2,353.4z"/>
		<path class="st9" d="M153.2,352.9c0.4,0.8-3.7,2.3-6.1,6.7c-1.8,3.4-0.7,5.2-2.3,6.4c-2.6,1.9-9.1,0.2-11.1-4.4
			c-1.8-4.2,0.6-9.5,3.5-10.3c1.9-0.5,2.7,1.3,6.3,2.1C148.7,354.5,152.8,352,153.2,352.9z"/>
	</g>
	<g>
		<path class="st9" d="M136.5,410.8c-0.8,0.4-2.3-3.7-6.8-6c-3.4-1.7-5.2-0.7-6.4-2.3c-1.9-2.5-0.3-9.1,4.3-11.1
			c4.1-1.8,9.5,0.5,10.4,3.4c0.5,1.9-1.3,2.7-2.1,6.3C134.8,406.3,137.4,410.4,136.5,410.8z"/>
		<path class="st9" d="M141.3,412.1c-0.4-0.9,3.8-2.2,6.2-6.6c1.9-3.3,0.9-5.2,2.5-6.3c2.6-1.8,9.1,0,10.9,4.7
			c1.7,4.2-0.9,9.5-3.7,10.2c-1.9,0.5-2.6-1.4-6.2-2.3C145.9,410.5,141.7,413,141.3,412.1z"/>
		<path class="st9" d="M137.4,423.6c0.3-0.9,4.3,0.8,9-1c3.6-1.4,4-3.4,6-3.2c3.1,0.3,6.9,5.9,5.3,10.7c-1.4,4.3-6.8,6.7-9.5,5.4
			c-1.8-0.9-1.1-2.8-3.3-5.8C141.9,425.4,137.1,424.6,137.4,423.6z"/>
		<path class="st9" d="M132.2,421.9c-0.3,0.9-4.3-0.8-9,0.9c-3.6,1.3-4.1,3.3-6,3.1c-3.1-0.3-6.8-6-5.2-10.7
			c1.5-4.3,6.9-6.6,9.5-5.3c1.8,0.9,1.1,2.8,3.2,5.8C127.7,420.1,132.5,421,132.2,421.9z"/>
		<path class="st9" d="M135.8,432.5c0.9-0.3,2,3.9,6.2,6.6c3.2,2,5.1,1.2,6.2,2.9c1.6,2.7-0.5,9.1-5.3,10.6c-4.3,1.4-9.5-1.4-10-4.3
			c-0.4-1.9,1.6-2.5,2.7-6.1C137.1,437.1,134.9,432.8,135.8,432.5z"/>
		<path class="st9" d="M130.9,431.9c0.4,0.8-3.7,2.3-6.1,6.7c-1.8,3.4-0.7,5.2-2.3,6.4c-2.6,1.9-9.1,0.2-11.1-4.4
			c-1.8-4.2,0.6-9.5,3.5-10.3c1.9-0.5,2.7,1.3,6.3,2.1C126.4,433.6,130.5,431,130.9,431.9z"/>
	</g>
	<g>
		<path class="st9" d="M109.9,491c-0.8,0.4-2.3-3.7-6.8-6c-3.4-1.7-5.2-0.7-6.4-2.3c-1.9-2.5-0.3-9.1,4.3-11.1
			c4.1-1.8,9.5,0.5,10.4,3.4c0.5,1.9-1.3,2.7-2.1,6.3C108.2,486.5,110.8,490.6,109.9,491z"/>
		<path class="st9" d="M114.7,492.3c-0.4-0.9,3.8-2.2,6.2-6.6c1.9-3.3,0.9-5.2,2.5-6.3c2.6-1.8,9.1,0,10.9,4.7
			c1.7,4.2-0.9,9.5-3.7,10.2c-1.9,0.5-2.6-1.4-6.2-2.3C119.2,490.8,115.1,493.2,114.7,492.3z"/>
		<path class="st9" d="M110.7,503.8c0.3-0.9,4.3,0.8,9-1c3.6-1.4,4-3.4,6-3.2c3.1,0.3,6.9,5.9,5.3,10.7c-1.4,4.3-6.8,6.7-9.5,5.4
			c-1.8-0.9-1.1-2.8-3.3-5.8C115.2,505.6,110.5,504.8,110.7,503.8z"/>
		<path class="st9" d="M105.5,502.2c-0.3,0.9-4.3-0.8-9,0.9c-3.6,1.3-4.1,3.3-6,3.1c-3.1-0.3-6.8-6-5.2-10.7
			c1.5-4.3,6.9-6.6,9.5-5.3c1.8,0.9,1.1,2.8,3.2,5.8C101.1,500.3,105.8,501.2,105.5,502.2z"/>
		<path class="st9" d="M109.2,512.7c0.9-0.3,2,3.9,6.2,6.6c3.2,2,5.1,1.2,6.2,2.9c1.6,2.7-0.5,9.1-5.3,10.6c-4.3,1.4-9.5-1.4-10-4.3
			c-0.4-1.9,1.6-2.5,2.7-6.1C110.5,517.4,108.3,513.1,109.2,512.7z"/>
		<path class="st9" d="M104.2,512.1c0.4,0.8-3.7,2.3-6.1,6.7c-1.8,3.4-0.7,5.2-2.3,6.4c-2.6,1.9-9.1,0.2-11.1-4.4
			c-1.8-4.2,0.6-9.5,3.5-10.3c1.9-0.5,2.7,1.3,6.3,2.1C99.7,513.8,103.8,511.2,104.2,512.1z"/>
	</g>
	<g>
		<path class="st9" d="M82.6,570c-0.8,0.4-2.3-3.7-6.8-6c-3.4-1.7-5.2-0.7-6.4-2.3c-1.9-2.5-0.3-9.1,4.3-11.1
			c4.1-1.8,9.5,0.5,10.4,3.4c0.5,1.9-1.3,2.7-2.1,6.3C80.9,565.5,83.4,569.6,82.6,570z"/>
		<path class="st9" d="M87.3,571.3c-0.4-0.9,3.8-2.2,6.2-6.6c1.9-3.3,0.9-5.2,2.5-6.3c2.6-1.8,9.1,0,10.9,4.7
			c1.7,4.2-0.9,9.5-3.7,10.2c-1.9,0.5-2.6-1.4-6.2-2.3C91.9,569.8,87.7,572.2,87.3,571.3z"/>
		<path class="st9" d="M83.4,582.8c0.3-0.9,4.3,0.8,9-1c3.6-1.4,4-3.4,6-3.2c3.1,0.3,6.9,5.9,5.3,10.7c-1.4,4.3-6.8,6.7-9.5,5.4
			c-1.8-0.9-1.1-2.8-3.3-5.8C87.9,584.6,83.1,583.8,83.4,582.8z"/>
		<path class="st9" d="M78.2,581.2c-0.3,0.9-4.3-0.8-9,0.9c-3.6,1.3-4.1,3.3-6,3.1c-3.1-0.3-6.8-6-5.2-10.7c1.5-4.3,6.9-6.6,9.5-5.3
			c1.8,0.9,1.1,2.8,3.2,5.8C73.7,579.3,78.5,580.2,78.2,581.2z"/>
		<path class="st9" d="M81.8,591.7c0.9-0.3,2,3.9,6.2,6.6c3.2,2,5.1,1.2,6.2,2.9c1.6,2.7-0.5,9.1-5.3,10.6c-4.3,1.4-9.5-1.4-10-4.3
			c-0.4-1.9,1.6-2.5,2.7-6.1C83.1,596.4,80.9,592.1,81.8,591.7z"/>
		<path class="st9" d="M76.9,591.1c0.4,0.8-3.7,2.3-6.1,6.7c-1.8,3.4-0.7,5.2-2.3,6.4c-2.6,1.9-9.1,0.2-11.1-4.4
			c-1.8-4.2,0.6-9.5,3.5-10.3c1.9-0.5,2.7,1.3,6.3,2.1C72.4,592.8,76.5,590.2,76.9,591.1z"/>
	</g>
	<path class="st6" d="M89.6,288.5c-0.5-7.9,2.5-14.8,8-17.5c1.2-0.6,3.4-1.4,6.4-1.2c-2.2,0-5.8-0.2-9-2.4
		c-6.8-4.6-7.7-15.1-9.5-14.8c-1,0.2-0.6,3.5-3.6,6.8c-0.9,1-1.5,1.6-2.4,1.8c-1.4,0.2-3.1-1-7.8-7.8c-4.3-6.2-5-8.4-7.8-9.3
		c-2.2-0.7-2.6,0.4-5.1-0.4c-3.6-1.1-3.4-3.6-7-5c-3-1.2-3.9,0.1-6.4-1.4c-1.6-1-1.2-1.5-3.9-4c-1.6-1.6-1.8-1.3-4.9-3.9
		c-3-2.5-3.6-3.2-4.1-3c-1.2,0.5-0.8,4.6,0,7.5c1.1,4.3,4.3,10.9,8.6,11.3c1.1,0.1,1.6-0.3,2.9,0.1c2.1,0.6,3.2,2.4,4.4,4.3
		c0.9,1.4,1.7,2.8,1.3,3.6c-0.4,0.7-1.2,0.5-1.9,1.3c-0.8,1-0.3,2.3-0.4,3.3c-0.3,2.7-6.3,3.3-10.5,5.3c-3,1.4-1.7,1.9-12.1,14.8
		c-3,3.7-5.2,8.2-8.1,12c-0.5,0.7-1.8,2.3-1.8,4.5c0,1.7,0.9,3.9,2.5,4.8c1.5,0.8,2.9,0.1,7.9-1.9c7.3-2.9,9.2-3.3,13.3-5.6
		c2.5-1.4,3.5-2.3,4.4-3.1c2-2,2.2-3.2,3.8-4.9c1.3-1.4,2.5-1.8,6.5-3.4c9.1-3.6,8.9-3.8,11.3-4.4c3-0.7,7.8-1.8,9.5,0.4
		c0.5,0.6,0.9,1.7,0.6,2.8c-0.3,1.2-1.4,1.2-2,2.4c-0.9,1.9,0.6,4.6,1,5.4c0.9,1.6,1.7,2,1.5,2.8c-0.2,1.2-2.1,1.1-3,2.5
		c-1.1,1.7-0.5,4.7,0.9,5.4c1.9,0.9,5.6-2.5,7-3.8c1.1-1,1.2-1.3,2.1-1.9c1.7-1,2.9-0.7,5-1.6C88.2,289.5,89,289,89.6,288.5z"/>
	<path class="st7" d="M371.4,364.6l8.9-98.7c13.1,1.6,23,5.3,29.4,8.2c8.9,4,14.3,8.2,18.5,13.4c2.7,3.4,5.4,7,4.9,11.1
		c-0.5,3.9-3.6,5.4-5.6,11.3c-1,3-1.3,5.7-1.3,7.5c2.5,0.1,6.2,0.2,10.8,0.2c5.3-0.1,10.5-0.4,20.8-1.2c5.4-0.4,10.8-1,16.2-1.2
		c12.3-0.4,16.3,0.6,22-2.1c4-1.9,6.7-4.7,8.3-6.6c6.9,0.2,14.3,0.1,22.2-0.3c7.4-0.4,14.3-1,20.8-1.9c27,95.5,54,190.9,81,286.4
		c-34,2.1-62.7,3.4-84.9,4.2c-22.8,0.8-35.8,1.3-53.9,1.4c-18.2,0.1-23.1-0.2-39.3,0.2c-2.1,0.1-8.6,0.1-21.5,0.2
		c-7.9,0.1-13.7,0.1-21.3-0.9c-4.3-0.6-7.8-1.3-10.2-1.9c-2.3-28.4-5-57.2-8.1-86.5C384,458.4,378,410.8,371.4,364.6z"/>
	<path class="st8" d="M522.5,353.4c2.2,2.9,5.3,7.7,7.3,14.3c2.5,8.5,1.9,15.8,1.2,19.8c-0.1,0-0.3-0.1-0.5-0.1
		c-12.8-3-20.7-10.6-23.6-13c-11.4-9.4-34.5-12.2-45.4-3.9c-8.7,6.6-12.3,22.1-8.6,34.5c11,36.9,78.8,22.9,106.7,69.1
		c10.3,17,13.7,40.4,5.5,58.4c-13.8,30.1-61.2,47-110.1,27.5c-7.8-9.6-9.6-19.6-5.7-24.1c0.8-0.9,2.4-2.3,5.7-2.8
		c5.8,5.1,21.7,17.5,44.9,18.9c9.1,0.5,34.7,2,46-15.3c10.3-15.7,3.4-38.7-7.8-51.4c-7.5-8.5-12.9-7.8-45.6-21.3
		c-36.7-15.1-43.9-21.9-47.9-25.8c-11.4-11.3-17.7-24.5-17.4-37.5c0.1-5.3,1.5-15.2,10.3-26.7c5.2-5.6,14.6-14.2,28.7-19.8
		C492,343.9,515.4,351,522.5,353.4z"/>
	<path class="st10" d="M628.4,590.8c0.8,0.3,2,0.9,2.8,2c1.9,2.7-0.5,5.4,0.3,11.2c0.5,3.7,1.9,6.1,2.3,6.8c1.3,2,2.7,3.2,3,3.5
		c2.3,2,4.2,7.8,3.2,23.9c-15.9-1.5-21.4,0.8-22.8,3.8c-1.4,3.2,1.7,6.8-0.4,9.7c-2.6,3.5-8.7,0.5-11.4,4.1c-2.6,3.4,0.3,9.5,0.6,10
		c1.9,3.9,4.8,5,7.8,7.4c5.5,4.4,7.8,9.8,11,17.7c1.7,4.2,8.1,19.7,3.8,22.8c-4.1,3-17.6-5.6-22.8-14.8c-3.7-6.5-4.4-8.6-4.4-8.6
		c-1.2-3.5-1.6-6.6-4.4-9.3c-0.6-0.6-2.2-2.1-3.4-1.7c-1,0.3-0.9,1.6-2.2,2.7c-1.4,1.2-3.2,1.3-3.7,1.3c-3.4,0-6.8-3.7-8-7.4
		c-1.7-5.1,0.6-11.1,1.6-13.6c1.1-2.8,1.9-3.7,1.4-5c-1.2-3.2-7.4-1.5-9.5-5.1c-1.5-2.5-0.2-6.2,0.8-8.9c1.4-4.1,3.4-5.7,2.7-7
		c-0.6-1.1-2.4-1-6.1-1.1c-6.9-0.2-5-0.7-10.5-0.8c-10.4-0.1-12.7,1.8-14.3,0c-2.7-2.9,1.2-10.4,2.2-12.5c3-6.6,7.3-7.7,9.9-13.9
		c1.2-2.8,2.2-7.1,1.1-13.4L628.4,590.8z"/>
	<path class="st10" d="M397.2,593.3c19.9,1,39.8,2.1,59.8,3.1c1.8,1.4,4.3,3.8,5.9,7.4c2.1,4.6,0.5,6.1,2.5,11
		c2.3,5.7,5.6,6.4,6.1,11.2l0,0c1.6,1.6,0.2,5-1,6.1c-1.9,1.8-5.4-2.1-11.8-1.9c-1,0-7,0.2-8.5,3.4c-1.3,2.8,1.9,5.6,0.2,8.7
		c-1.1,2-3,2-3,3.4c-0.1,1.9,3.6,2.2,5.9,5.7c1.6,2.3,1.6,4.8,1.7,8c0.1,3.8,0.2,6.8-1.7,8.2c-2.3,1.6-6.1,0-8.2-1
		c-3.7-1.6-3.8-3.1-6.3-3.4c-3.8-0.5-7.1,2.4-8,3.2c-2.9,2.6-2.7,4.6-5.3,9.5c-1.9,3.5-4.4,8.1-9.1,10.8c-2.9,1.7-9,4-12.5,1.3
		c-4.6-3.5-2.4-13.8,0.9-19.7c1-1.7,3.4-5.9,8.2-8.8c2.6-1.6,4-1.6,5.8-3.6c2.1-2.3,4-6.3,2.7-9.3c-1.2-2.7-3.7-1.9-5.5-4.6
		c-3.3-4.7,1.4-11.9-1-13.5c-1.2-0.8-2.5,0.7-6.2,1.2c-3.2,0.4-6-0.2-8-1c-0.8-4.1-0.5-7.2,0-9.2c0.8-3.3,2-4.4,1.6-6.7
		c-0.4-2.3-1.8-2.4-4.5-6.2c-2-2.8-3.9-5.4-3.5-8.5C394.6,596,396.1,594.3,397.2,593.3z"/>
	<path class="st4" d="M561.7,299c-0.3,3.3-0.4,6.9-0.4,10.8c0,2.7,0.2,5.3,0.4,7.7c28.2,94.8,56.4,189.7,84.6,284.5
		c2.2,5.2,6.1,12,13.1,14.6c4.8,1.8,7-0.1,18.7-0.7c11.8-0.6,12.5,1.1,23.4,0.1c12.4-1.1,16.8-3.7,18.6-4.8c4.5-2.9,7.3-6.7,8.8-9.2
		c-29.5-76-59.1-152-88.6-228c1.1-14.8,0-23.5-1.3-28.8c-0.1-0.5-1.1-4.5-0.8-9.6c0.3-4.3,0.6-9.3,3.8-11.1c3.5-2,8.9,0.3,11.9,3.1
		c3.7,3.4,2.8,6.6,6.2,9c3.5,2.5,8,1.6,10.3,1.2c9.5-1.8,20.4-18.1,28.1-41.4c-1.8-6.9-3.6-13.8-5.4-20.8
		c-18.1,0.3-33.3,1.3-44.6,2.3c-19,1.7-31.2,2.8-46.9,6.7C584.6,288.8,571,294.5,561.7,299z"/>
	<g>
		<path class="st9" d="M680.4,568.7c1.2-0.2,3.2-0.8,5.3-2.2c2.2-1.6,3.3-3.5,4.1-4.8c2.8-4.8,2.6-9.5,2.6-11.3
			c-0.1-1.4-0.2-2.6-0.4-3.4c-0.8,0.3-1.9,0.7-3.1,1.3c-4.9,2.7-7.2,6.9-7.9,8.1c-0.8,1.6-1.8,3.6-1.9,6.5
			C679.1,565.5,679.9,567.6,680.4,568.7z"/>
		<path class="st9" d="M674.2,571.3c-0.2-1.2-0.8-3.2-2.2-5.3c-1.6-2.2-3.5-3.3-4.8-4.1c-4.8-2.8-9.5-2.6-11.3-2.6
			c-1.4,0.1-2.6,0.2-3.4,0.4c0.3,0.8,0.7,1.9,1.3,3.1c2.7,4.9,6.9,7.2,8.1,7.9c1.6,0.8,3.6,1.8,6.5,1.9
			C671,572.5,673,571.8,674.2,571.3z"/>
		<path class="st9" d="M676.7,577.5c-1.2,0.2-3.2,0.8-5.3,2.2c-2.2,1.6-3.3,3.5-4.1,4.8c-2.8,4.8-2.6,9.5-2.6,11.3
			c0.1,1.4,0.2,2.6,0.4,3.4c0.8-0.3,1.9-0.7,3.1-1.3c4.9-2.7,7.2-6.9,7.9-8.1c0.8-1.6,1.8-3.6,1.9-6.5
			C678,580.7,677.2,578.6,676.7,577.5z"/>
		<path class="st9" d="M683,574.9c0.2,1.2,0.8,3.2,2.2,5.3c1.6,2.2,3.5,3.3,4.8,4.1c4.8,2.8,9.5,2.6,11.3,2.6
			c1.4-0.1,2.6-0.2,3.4-0.4c-0.3-0.8-0.7-1.9-1.3-3.1c-2.7-4.9-6.9-7.2-8.1-7.9c-1.6-0.8-3.6-1.8-6.5-1.9
			C686.1,573.7,684.1,574.4,683,574.9z"/>
	</g>
	<g>
		<path class="st9" d="M659.4,507.8c1.2-0.2,3.2-0.8,5.3-2.2c2.2-1.6,3.3-3.5,4.1-4.8c2.8-4.8,2.6-9.5,2.6-11.3
			c-0.1-1.4-0.2-2.6-0.4-3.4c-0.8,0.3-1.9,0.7-3.1,1.3c-4.9,2.7-7.2,6.9-7.9,8.1c-0.8,1.6-1.8,3.6-1.9,6.5
			C658.2,504.6,658.9,506.6,659.4,507.8z"/>
		<path class="st9" d="M653.2,510.3c-0.2-1.2-0.8-3.2-2.2-5.3c-1.6-2.2-3.5-3.3-4.8-4.1c-4.8-2.8-9.5-2.6-11.3-2.6
			c-1.4,0.1-2.6,0.2-3.4,0.4c0.3,0.8,0.7,1.9,1.3,3.1c2.7,4.9,6.9,7.2,8.1,7.9c1.6,0.8,3.6,1.8,6.5,1.9
			C650,511.6,652.1,510.9,653.2,510.3z"/>
		<path class="st9" d="M655.8,516.6c-1.2,0.2-3.2,0.8-5.3,2.2c-2.2,1.6-3.3,3.5-4.1,4.8c-2.8,4.8-2.6,9.5-2.6,11.3
			c0.1,1.4,0.2,2.6,0.4,3.4c0.8-0.3,1.9-0.7,3.1-1.3c4.9-2.7,7.2-6.9,7.9-8.1c0.8-1.6,1.8-3.6,1.9-6.5
			C657,519.8,656.3,517.7,655.8,516.6z"/>
		<path class="st9" d="M662,514c0.2,1.2,0.8,3.2,2.2,5.3c1.6,2.2,3.5,3.3,4.8,4.1c4.8,2.8,9.5,2.6,11.3,2.6c1.4-0.1,2.6-0.2,3.4-0.4
			c-0.3-0.8-0.7-1.9-1.3-3.1c-2.7-4.9-6.9-7.2-8.1-7.9c-1.6-0.8-3.6-1.8-6.5-1.9C665.2,512.8,663.1,513.5,662,514z"/>
	</g>
	<g>
		<path class="st9" d="M638.6,446c1.2-0.2,3.2-0.8,5.3-2.2c2.2-1.6,3.3-3.5,4.1-4.8c2.8-4.8,2.6-9.5,2.6-11.3
			c-0.1-1.4-0.2-2.6-0.4-3.4c-0.8,0.3-1.9,0.7-3.1,1.3c-4.9,2.7-7.2,6.9-7.9,8.1c-0.8,1.6-1.8,3.6-1.9,6.5
			C637.3,442.8,638,444.9,638.6,446z"/>
		<path class="st9" d="M632.3,448.6c-0.2-1.2-0.8-3.2-2.2-5.3c-1.6-2.2-3.5-3.3-4.8-4.1c-4.8-2.8-9.5-2.6-11.3-2.6
			c-1.4,0.1-2.6,0.2-3.4,0.4c0.3,0.8,0.7,1.9,1.3,3.1c2.7,4.9,6.9,7.2,8.1,7.9c1.6,0.8,3.6,1.8,6.5,1.9
			C629.2,449.8,631.2,449.1,632.3,448.6z"/>
		<path class="st9" d="M634.9,454.8c-1.2,0.2-3.2,0.8-5.3,2.2c-2.2,1.6-3.3,3.5-4.1,4.8c-2.8,4.8-2.6,9.5-2.6,11.3
			c0.1,1.4,0.2,2.6,0.4,3.4c0.8-0.3,1.9-0.7,3.1-1.3c4.9-2.7,7.2-6.9,7.9-8.1c0.8-1.6,1.8-3.6,1.9-6.5
			C636.1,458,635.4,456,634.9,454.8z"/>
		<path class="st9" d="M641.1,452.3c0.2,1.2,0.8,3.2,2.2,5.3c1.6,2.2,3.5,3.3,4.8,4.1c4.8,2.8,9.5,2.6,11.3,2.6
			c1.4-0.1,2.6-0.2,3.4-0.4c-0.3-0.8-0.7-1.9-1.3-3.1c-2.7-4.9-6.9-7.2-8.1-7.9c-1.6-0.8-3.6-1.8-6.5-1.9
			C644.3,451,642.3,451.7,641.1,452.3z"/>
	</g>
	<g>
		<path class="st9" d="M619,387.5c1.2-0.2,3.2-0.8,5.3-2.2c2.2-1.6,3.3-3.5,4.1-4.8c2.8-4.8,2.6-9.5,2.6-11.3
			c-0.1-1.4-0.2-2.6-0.4-3.4c-0.8,0.3-1.9,0.7-3.1,1.3c-4.9,2.7-7.2,6.9-7.9,8.1c-0.8,1.6-1.8,3.6-1.9,6.5
			C617.8,384.3,618.5,386.3,619,387.5z"/>
		<path class="st9" d="M612.8,390c-0.2-1.2-0.8-3.2-2.2-5.3c-1.6-2.2-3.5-3.3-4.8-4.1c-4.8-2.8-9.5-2.6-11.3-2.6
			c-1.4,0.1-2.6,0.2-3.4,0.4c0.3,0.8,0.7,1.9,1.3,3.1c2.7,4.9,6.9,7.2,8.1,7.9c1.6,0.8,3.6,1.8,6.5,1.9
			C609.6,391.3,611.6,390.5,612.8,390z"/>
		<path class="st9" d="M615.3,396.2c-1.2,0.2-3.2,0.8-5.3,2.2c-2.2,1.6-3.3,3.5-4.1,4.8c-2.8,4.8-2.6,9.5-2.6,11.3
			c0.1,1.4,0.2,2.6,0.4,3.4c0.8-0.3,1.9-0.7,3.1-1.3c4.9-2.7,7.2-6.9,7.9-8.1c0.8-1.6,1.8-3.6,1.9-6.5
			C616.6,399.4,615.8,397.4,615.3,396.2z"/>
		<path class="st9" d="M621.6,393.7c0.2,1.2,0.8,3.2,2.2,5.3c1.6,2.2,3.5,3.3,4.8,4.1c4.8,2.8,9.5,2.6,11.3,2.6
			c1.4-0.1,2.6-0.2,3.4-0.4c-0.3-0.8-0.7-1.9-1.3-3.1c-2.7-4.9-6.9-7.2-8.1-7.9c-1.6-0.8-3.6-1.8-6.5-1.9
			C624.7,392.4,622.7,393.2,621.6,393.7z"/>
	</g>
	<g>
		<path class="st9" d="M602,326c1.2-0.2,3.2-0.8,5.3-2.2c2.2-1.6,3.3-3.5,4.1-4.8c2.8-4.8,2.6-9.5,2.6-11.3
			c-0.1-1.4-0.2-2.6-0.4-3.4c-0.8,0.3-1.9,0.7-3.1,1.3c-4.9,2.7-7.2,6.9-7.9,8.1c-0.8,1.6-1.8,3.6-1.9,6.5
			C600.7,322.8,601.4,324.8,602,326z"/>
		<path class="st9" d="M595.7,328.5c-0.2-1.2-0.8-3.2-2.2-5.3c-1.6-2.2-3.5-3.3-4.8-4.1c-4.8-2.8-9.5-2.6-11.3-2.6
			c-1.4,0.1-2.6,0.2-3.4,0.4c0.3,0.8,0.7,1.9,1.3,3.1c2.7,4.9,6.9,7.2,8.1,7.9c1.6,0.8,3.6,1.8,6.5,1.9
			C592.6,329.8,594.6,329,595.7,328.5z"/>
		<path class="st9" d="M598.3,334.8c-1.2,0.2-3.2,0.8-5.3,2.2c-2.2,1.6-3.3,3.5-4.1,4.8c-2.8,4.8-2.6,9.5-2.6,11.3
			c0.1,1.4,0.2,2.6,0.4,3.4c0.8-0.3,1.9-0.7,3.1-1.3c4.9-2.7,7.2-6.9,7.9-8.1c0.8-1.6,1.8-3.6,1.9-6.5
			C599.5,337.9,598.8,335.9,598.3,334.8z"/>
		<path class="st9" d="M604.5,332.2c0.2,1.2,0.8,3.2,2.2,5.3c1.6,2.2,3.5,3.3,4.8,4.1c4.8,2.8,9.5,2.6,11.3,2.6
			c1.4-0.1,2.6-0.2,3.4-0.4c-0.3-0.8-0.7-1.9-1.3-3.1c-2.7-4.9-6.9-7.2-8.1-7.9c-1.6-0.8-3.6-1.8-6.5-1.9
			C607.7,331,605.7,331.7,604.5,332.2z"/>
	</g>
	<path class="st6" d="M693.1,275.6c1.9-0.9,4.7-2.4,7.4-5c3.7-3.6,5.1-7.1,6.6-6.8c1.7,0.4,0.7,5.1,3.8,7.1c1.6,1,3.8,1,4.1,0.3
		c0.4-0.8-2-1.8-2.2-3.6c-0.5-2.9,5.2-6.1,10.4-8.9c15.2-8.1,16.3-7.1,21.3-11c7-5.4,10.3-11.7,12-10.7c1.3,0.7,1.1,5.3,0.7,7.8
		c0,0.1,0,0.2,0,0.2c-1,1.9-2.6,2.2-5.1,5.1c-2,2.3-1.7,2.9-3.1,4.8c-4.2,5.3-10,4.6-12.2,8.2c-1.5,2.4-2.7,5.5-2.7,5.5
		c-0.2,0.4-0.4,0.9-0.6,1.5c-0.4,1.5-0.2,2.9,0,3.6c3-0.2,7.1,0,10.2,2.5c2.1,1.7,2,3.1,4,5.9c2.8,4,6.3,6.1,12.4,9.7
		c6.2,3.7,8.9,4.1,10.3,7.4c0.2,0.6,1.4,3.6,0,5.8c-2.1,3.3-8.5,2.7-12.1,2.4c-2.9-0.3-5-0.9-11.8-1.6c-0.9-0.1-0.8,0-1-0.1
		c-4.5-2-6.6-4.4-16.2-10.8c-6.1-4.1-11.3-7.1-14.7-9.1c-0.2,6.5-1.2,9.4-2.2,10.8c-0.3,0.4-0.9,1.1-1,2.2c-0.2,1.6,0.9,2.3,1.1,4
		c0.2,1.5-0.4,3.6-1.3,3.9c-1.6,0.4-2.7-5.2-7.9-8.5c-1.7-1.1-3.4-1.7-4.6-1.9C696.7,289.4,694.9,282.5,693.1,275.6z"/>
</g>
</svg>
